<svg xmlns="http://www.w3.org/2000/svg" viewBox="0 0 231 231"><path d="M33.83,33.83a115.5,115.5,0,1,1,0,163.34,115.49,115.49,0,0,1,0-163.34Z" style="fill:#a50000;"/><path d="m115.5 51.75a63.75 63.75 0 0 0-10.5 126.63v14.09a115.5 115.5 0 0 0-53.729 19.027 115.5 115.5 0 0 0 128.46 0 115.5 115.5 0 0 0-53.729-19.029v-14.084a63.75 63.75 0 0 0 53.25-62.881 63.75 63.75 0 0 0-63.65-63.75 63.75 63.75 0 0 0-0.09961 0z" style="fill:#c36c00;"/><path d="m141.75 195a114.79 114.79 0 0 1 38 16.5 115.53 115.53 0 0 1-128.46 0 114.79 114.79 0 0 1 38-16.5c0 10.76 11.75 19.48 26.25 19.48s26.25-8.72 26.25-19.48z" style="fill:#fff;"/><path d="m92.502 194.27v0.70391c0 4.3033 2.4373 8.2583 6.3807 11.183 4.2199 3.1204 10.106 5.0508 16.661 5.0508 6.548 0 12.434-1.9303 16.654-5.0508 3.9434-2.9245 6.388-6.8795 6.388-11.183v-0.67489c1.0768 0.21771 2.1463 0.44994 3.2158 0.69666h-7e-3c1.0695 0.24672 2.1318 0.50798 3.1867 0.791-0.27648 6.103-3.6524 11.553-8.9708 15.493-5.2821 3.9114-12.521 6.328-20.466 6.328-7.9449 0-15.184-2.4165-20.474-6.328-5.333-3.9477-8.7089-9.4194-8.9708-15.544 1.055-0.27577 2.1099-0.53702 3.1722-0.78376 1.0695-0.23947 2.1463-0.46443 3.2304-0.68213z" style="fill:#000;"/><path d="m57.534 142.03c-6.9383-31.75-0.57294-52.577 14.174-62.344 22.562-12.283 62.082-12.222 83.484-1.8846 21.348 11.177 22.124 37.396 18.498 63.733 8.1279-14.155 13.164-31.598 14.085-48.902 1.0828-11.795-1.1756-18.866-7.4833-27.972-26.465-37.685-103.45-31.56-129.66-2.8372-7.8504 9.4615-9.6006 17.478-9.275 26.667 1.0024 18.667 6.9688 38.508 16.18 53.54z" style="fill:#ff9809;"/><path d="m111.26 3.0423c-6.013 0.1128-12.629 2.6924-15.291 7.9082-1.1676 3.2383-1.6758 6.2069-1.6758 8.8926 0.89228-0.2661 1.8005-0.5164 2.7266-0.7441 3.7502-1.0672 7.4851-1.7135 11.129-1.9981 1.1007-0.086 2.1953-0.1391 3.2773-0.1601h2e-3c5.6969-0.1133 11.09 0.6603 15.904 2.0527 0.0552-3.042-0.70696-5.9824-2.1738-8.5-1.8411-3.1599-4.7033-5.5568-8.4297-6.8262-1.6883-0.4952-3.5163-0.662-5.4688-0.625zm3.0664 17.449c-0.69317-0.01-1.3919-0.01-2.0938 0h-2e-3c-1.1591 0.019-2.3326 0.064-3.5117 0.1386-3.9035 0.246-7.9025 0.8061-11.92 1.7285-15.159 3.0075-26.469 9.9279-22.068 19.682 22.891-8.7773 52.315-10.403 76.023-2.2129 2.1414-9.5529-14.939-19.081-36.428-19.34z" style="fill:none;"/><path d="m165.62 16.981c-0.8575 0-1.9406 0.54389-3.3476 1.3574-7.3382 4.7652-13.452 10.867-19.516 18.363 9.2734 2.1825 17.903 5.6706 25.213 10.604 1.1512-9.1263 1.9137-18.503 0.055-26.996-0.57-2.4184-1.3017-3.3267-2.4043-3.3281zm-104.09 1.6934c-1.1026 0-1.8342 0.91165-2.4043 3.3301-1.8794 8.5869-1.0806 18.078 0.092 27.299 7.0559-4.6638 15.687-8.3667 25.111-10.984-6.043-7.4601-12.139-13.537-19.451-18.285-1.407-0.81353-2.4901-1.3605-3.3477-1.3594z" style="fill:#ffc809;"/><path d="m162.45 16.686c-2.3175 2e-3 -4.6276 0.57608-6.8926 1.668-8.4768 6.0155-11.113 13.349-10.133 19.787 10.323 2.7077 19.762 7.0658 27.346 13.279 9.848-4.9363 11.32-17.137 4.6152-25.852-4.7104-6.1222-9.8371-8.8878-14.936-8.8828zm-97.318 4.1387c-2.4569 0.0556-5.1642 0.54474-8.1172 1.5176-13.487 4.4433-19.06 21.215-3.6484 31.84 7.2476-6.0694 16.961-10.896 27.892-14.229 0.2193-3.3241-0.3201-7.0817-1.8691-11.236-2.8049-4.8445-7.2233-7.721-13.221-7.8906-0.3408-0.01-0.6861-0.01-1.0371-2e-3z" style="fill:none;"/><path d="m161.73 86.016h-92.51c-3.37 0-6.0001 2.3998-6.0001 5.2999v28.45c0 3.0002 2.74 5.3001 6.0001 5.3001h32.36c7.0901 0 7.44-19.43 13.82-19.43s6.8801 19.44 13.83 19.44h32.36c3.37 0 5.9999-2.4 5.9999-5.3001v-28.46c0.14043-2.9001-2.6-5.2999-5.9-5.2999z" style="fill:#581b1b;"/><path d="m161.73 86.016h-92.51c-3.37 0-6.0001 2.3998-6.0001 5.2999v28.45l104.55-28.45c0-2.9001-2.74-5.2999-5.9999-5.2999z" style="fill:#FF8B8B;"/><path d="m161.73 86.016h-92.51c-3.37 0-6.0001 2.3998-6.0001 5.2999v28.45c0 3.0002 2.74 5.3001 6.0001 5.3001h32.36c7.0901 0 7.44-19.43 13.82-19.43s6.8801 19.44 13.83 19.44h32.36c3.37 0 5.9999-2.4 5.9999-5.3001v-28.46c0.14043-2.9001-2.6-5.2999-5.9-5.2999z" style="fill:none;stroke-linecap:round;stroke-linejoin:round;stroke-width:4.0026px;stroke:#000;"/><path d="m127.84 146.73c-2.24 8.93-6.92 15.08-12.34 15.08s-10.1-6.15-12.34-15.08z" style="fill:#fff;stroke-linecap:round;stroke-linejoin:round;stroke-width:2.9999px;stroke:#000;"/></svg>