<svg xmlns="http://www.w3.org/2000/svg" viewBox="0 0 231 231"><path d="M33.83,33.83a115.5,115.5,0,1,1,0,163.34,115.49,115.49,0,0,1,0-163.34Z" style="fill:#E6C117;"/><path d="m115.5 51.75a63.75 63.75 0 0 0-10.5 126.63v14.09a115.5 115.5 0 0 0-53.729 19.027 115.5 115.5 0 0 0 128.46 0 115.5 115.5 0 0 0-53.729-19.029v-14.084a63.75 63.75 0 0 0 53.25-62.881 63.75 63.75 0 0 0-63.65-63.75 63.75 63.75 0 0 0-0.09961 0z" style="fill:#fff;"/><path d="m141.75 195a114.79 114.79 0 0 1 38 16.5 115.53 115.53 0 0 1-128.46 0 114.79 114.79 0 0 1 38-16.5c0 10.76 11.75 19.48 26.25 19.48s26.25-8.72 26.25-19.48z" style="fill:#000;"/><path d="m57.534 142.03c-6.9383-31.75-0.57294-52.577 14.174-62.344 22.562-12.283 62.082-12.222 83.484-1.8846 21.348 11.177 22.124 37.396 18.498 63.733 8.1279-14.155 13.164-31.598 14.085-48.902 1.0828-11.795-1.1756-18.866-7.4833-27.972-26.465-37.685-103.45-31.56-129.66-2.8372-7.8504 9.4615-9.6006 17.478-9.275 26.667 1.0024 18.667 6.9688 38.508 16.18 53.54z" style="fill:#ff9809;"/><path d="m111.26 3.0423c-6.013 0.1128-12.629 2.6924-15.291 7.9082-1.1676 3.2383-1.6758 6.2069-1.6758 8.8926 0.89228-0.2661 1.8005-0.5164 2.7266-0.7441 3.7502-1.0672 7.4851-1.7135 11.129-1.9981 1.1007-0.086 2.1953-0.1391 3.2773-0.1601h2e-3c5.6969-0.1133 11.09 0.6603 15.904 2.0527 0.0552-3.042-0.70696-5.9824-2.1738-8.5-1.8411-3.1599-4.7033-5.5568-8.4297-6.8262-1.6883-0.4952-3.5163-0.662-5.4688-0.625zm3.0664 17.449c-0.69317-0.01-1.3919-0.01-2.0938 0h-2e-3c-1.1591 0.019-2.3326 0.064-3.5117 0.1386-3.9035 0.246-7.9025 0.8061-11.92 1.7285-15.159 3.0075-26.469 9.9279-22.068 19.682 22.891-8.7773 52.315-10.403 76.023-2.2129 2.1414-9.5529-14.939-19.081-36.428-19.34z" style="fill:none;"/><path d="m165.62 16.981c-0.8575 0-1.9406 0.54389-3.3476 1.3574-7.3382 4.7652-13.452 10.867-19.516 18.363 9.2734 2.1825 17.903 5.6706 25.213 10.604 1.1512-9.1263 1.9137-18.503 0.055-26.996-0.57-2.4184-1.3017-3.3267-2.4043-3.3281zm-104.09 1.6934c-1.1026 0-1.8342 0.91165-2.4043 3.3301-1.8794 8.5869-1.0806 18.078 0.092 27.299 7.0559-4.6638 15.687-8.3667 25.111-10.984-6.043-7.4601-12.139-13.537-19.451-18.285-1.407-0.81353-2.4901-1.3605-3.3477-1.3594z" style="fill:#ffc809;"/><path d="m162.45 16.686c-2.3175 2e-3 -4.6276 0.57608-6.8926 1.668-8.4768 6.0155-11.113 13.349-10.133 19.787 10.323 2.7077 19.762 7.0658 27.346 13.279 9.848-4.9363 11.32-17.137 4.6152-25.852-4.7104-6.1222-9.8371-8.8878-14.936-8.8828zm-97.318 4.1387c-2.4569 0.0556-5.1642 0.54474-8.1172 1.5176-13.487 4.4433-19.06 21.215-3.6484 31.84 7.2476-6.0694 16.961-10.896 27.892-14.229 0.2193-3.3241-0.3201-7.0817-1.8691-11.236-2.8049-4.8445-7.2233-7.721-13.221-7.8906-0.3408-0.01-0.6861-0.01-1.0371-2e-3z" style="fill:none;"/><path d="m86.851 100.39a4.94 4.94 0 1 0 4.9297 5 5 5 0 0 0-4.9297-5zm57.221 0a4.94 4.94 0 1 0 4.9394 4.9394 4.94 4.94 0 0 0-4.9394-4.9394z" style="fill:#000;"/><path d="m86.207 89.365c-25.504 0-21.503 6.8561-21.035 19.596 0.80177 18.121 17.763 16.514 21.201 16.639 14.758-0.041 20.518-8.227 22.951-22.932 1.8166-10.731-9.251-13.174-23.117-13.303zm58.598 0c-13.866 0.1284-24.936 2.5717-23.119 13.303 2.4332 14.705 8.1936 22.891 22.951 22.932 3.4383-0.125 20.399 1.4828 21.201-16.639 0-18.965-0.47958-19.596-21.033-19.596z" style="fill:#000;"/><path d="m169.87 90.255a0.51 0.51 0 0 0-0.43991-0.52 167.64 167.64 0 0 0-22.6-1.6801c-12 0-27.47 3.7601-30.17 3.7601h-2.4c-1.2499 0-5.29-0.80996-10.45-1.6801a124.35 124.35 0 0 0-19.72-2.08 166.18 166.18 0 0 0-19.31 1.24c-1.56 0.17999-2.69 0.35009-3.2899 0.44009a0.51 0.51 0 0 0-0.44007 0.52l-0.091 6.4501a0.57 0.57 0 0 0 0.33012 0.52l0.73994 0.23992c1.08 0.41992 1.0001 19.85 6.78 24.71 3.4401 2.8599 6.51 4.4899 19.42 4.4899 7.4699 0 12.17-1.9999 16.63-8 3.21-4.32 6.0999-14.55 6.0999-14.55 0.82006-4.07 3.7702-4.52 4.43-4.5801h0.12068c0.11078 0 3.66 0.0593 4.57 4.5801 0 0 2.8599 10.22 6.0699 14.54 4.4601 5.9999 9.1601 8 16.63 8 12.91 0 16-1.63 19.42-4.4901 5.7898-4.86 5.6998-24.29 6.78-24.71l0.73994-0.23993a0.57 0.57 0 0 0 0.32996-0.52l-0.12068-6.4501zm-65 23c-1.9101 4.5-6.8 10.29-13.7 10.64-20.7 0.99985-21.65-4.7401-23-9.3201a31.45 31.45 0 0 1-1.2099-13.18c0.53997-4.5799 1.7-7.2699 3.7801-8.6201a9.3 9.3 0 0 1 4.3499-1.51 85.07 85.07 0 0 1 11.4-0.52 59.23 59.23 0 0 1 9.2099 0.69999c7.37 1.2 12.35 3.7001 12.35 6.1601a46.12 46.12 0 0 1-3.23 15.64zm58 1.3201c-1.34 4.5799-2.29 10.36-23 9.3201-6.91-0.3501-11.81-6.1401-13.71-10.64a46.35 46.35 0 0 1-3.22-15.64c0-3.39 9.43-6.8599 21.56-6.8599 12.13 0 14 0.89996 15.75 1.9999 2.08 1.3502 3.2398 4 3.77 8.6201a31.23 31.23 0 0 1-1.1601 13.17z" style="fill:#57FFFD;"/><path d="m100.35 143.85a7.67 7.67 0 0 0 7.58 7.7v0a7.66 7.66 0 0 0 7.57-7.7 7.66 7.66 0 0 0 7.57 7.7v0a7.67 7.67 0 0 0 7.58-7.7" style="fill:none;stroke-linecap:round;stroke-linejoin:round;stroke-width:6.3998px;stroke:#000;"/></svg>