<svg xmlns="http://www.w3.org/2000/svg" viewBox="0 0 231 231"><path d="M33.83,33.83a115.5,115.5,0,1,1,0,163.34,115.49,115.49,0,0,1,0-163.34Z" style="fill:#bcf700;"/><path d="m115.5 51.75a63.75 63.75 0 0 0-10.5 126.63v14.09a115.5 115.5 0 0 0-53.729 19.027 115.5 115.5 0 0 0 128.46 0 115.5 115.5 0 0 0-53.729-19.029v-14.084a63.75 63.75 0 0 0 53.25-62.881 63.75 63.75 0 0 0-63.65-63.75 63.75 63.75 0 0 0-0.09961 0z" style="fill:#e8bc86;"/><path d="m141.89 195a114.79 114.79 0 0 1 38 16.5 115.55 115.55 0 0 1-128.47 0 114.79 114.79 0 0 1 38-16.5l15.75 15.75h21z" style="fill:#0D204A;"/><path d="m146.4 196.14-17.4 17.44-1.17 1.17h-24.34l-1.18-1.17-17.43-17.44c1.49-0.41 3-0.79 4.51-1.14l4.67-1 12.74 12.74h17.69l12.73-12.74 4.67 1c1.52 0.35 3 0.73 4.51 1.14z" style="fill:#00ffdf;"/><path d="m30.622 70.381c2.0971-3.9374 4.6649-7.9604 7.6822-12.037 3.0172-4.0765 6.0987-7.6929 9.2229-10.817l22.897 22.897c-4.4402 4.4403-8.2278 9.5439-11.213 15.14z" style="fill:#dd104f;"/><path d="m160.58 70.423 22.907-22.897c3.1242 3.1242 6.2056 6.7406 9.2229 10.817 3.0065 4.0765 5.5744 8.0994 7.6715 12.037l-28.578 15.182c-2.9851-5.5958-6.7727-10.689-11.224-15.14z" style="fill:#dd104f;"/><path d="m92.411 15.247c3.8197-0.87736 7.6715-1.5407 11.534-1.9794 4.0765-0.46007 7.9282-0.69546 11.555-0.69546 1.53 0 3.1563 0.0428 4.8682 0.1391l1.851 22.255 5.767-21.57c3.1028 0.37449 6.0666 0.86666 8.8912 1.4658l-10.55 49.763c-1.9259-0.41729-3.702-0.70617-5.3176-0.87736-1.423-0.14979-3.2633-0.22468-5.5102-0.22468-2.2362 0-4.237 0.10699-5.981 0.29958-1.9473 0.22469-3.8732 0.55636-5.767 0.99504z" style="fill:#f73b6c;"/><path d="m92.411 15.247c1.9152-0.43869 4.023-0.84526 6.3233-1.2304 2.065-0.34238 4.1514-0.62057 6.2698-0.84525l5.1785 50.565c-1.0913 0.10699-2.1827 0.25679-3.2954 0.43868-0.86665 0.14979-1.9152 0.36378-3.1349 0.64196z" style="fill:#dd104f;"/><line x1="85.29" x2="85.29" y1="98.73" y2="109.79" style="fill:none;stroke-linecap:round;stroke-linejoin:round;stroke-width:8.7999px;stroke:black;"/><path d="m108.28 72.16h62.18c9.19 0 13.32 1.21 14.71 8.52 3.61 18.95 2.2 33.49-0.44 43.75a65.07 65.07 0 0 1-5.89 14.78 73.52 73.52 0 0 1-7.06 10.26c-1.8 2.27-5.17 1.21-4.19-1.09 0.14-0.47 0.27-1 0.4-1.48a14.29 14.29 0 0 0 0.52-6.62 12.52 12.52 0 0 0-3.88-6.3c-4.17-3.9-12.81-8.71-32.53-13.66-6.4-1.6-10.69-2.24-11.76-2.79a7.08 7.08 0 0 1-3.85-6.31v-9c0-2.39 0.18-4.55-1.56-6.57s-4.16-2.13-6.65-2.14a6 6 0 0 1-6-6v-9.35a6 6 0 0 1 6-6z" style="fill:#1df7ffa3;"/><path d="m135.9 98.73v9.27m15.22-9.29v9.29" style="fill:none;stroke-linecap:round;stroke-linejoin:round;stroke-width:7.7998px;stroke:#fcff2c;"/><path d="m100.19 152.09c2.8726 4.0616 9.8095 4.7232 15.119-0.45432 5.0656 4.5134 11.167 5.6898 15.495 0.31458" style="fill:none;stroke-linecap:round;stroke-linejoin:round;stroke-width:5.8949;stroke:#111;"/><path d="m109.67 135.53c-0.9758 0.0743-2.05 0.45327-3.1485 0.99414-4.3235 2.1399-7.3862 4.2557-10.639 7.1406-0.6251 0.5715 0.1168 0.77785 1.4238 0.87304 5.6967 0.0536 14.384 0.41404 15.098-0.875 1.9251-2.0788 1.7969-5.3303-0.1816-7.3008-0.701-0.67533-1.5769-0.90632-2.5527-0.83203zm11.656 0c-0.9758-0.0743-1.8517 0.1567-2.5527 0.83203-1.9785 1.9705-2.1067 5.222-0.1817 7.3008 0.7142 1.289 9.401 0.9286 15.098 0.875 1.307-0.0952 2.0489-0.30154 1.4238-0.87304-3.2524-2.8849-6.3151-5.0007-10.639-7.1406-1.0985-0.54087-2.1727-0.91985-3.1485-0.99414z" style="fill:#633b1d;"/></svg>