<svg xmlns="http://www.w3.org/2000/svg" viewBox="0 0 231 231"><path d="M33.83,33.83a115.5,115.5,0,1,1,0,163.34,115.49,115.49,0,0,1,0-163.34Z" style="fill:#FFC107;"/><path d="m115.5 51.75a63.75 63.75 0 0 0-10.5 126.63v14.09a115.5 115.5 0 0 0-53.729 19.027 115.5 115.5 0 0 0 128.46 0 115.5 115.5 0 0 0-53.729-19.029v-14.084a63.75 63.75 0 0 0 53.25-62.881 63.75 63.75 0 0 0-63.65-63.75 63.75 63.75 0 0 0-0.09961 0z" style="fill:#e8bc86;"/><path d="m141.75 195a114.79 114.79 0 0 1 38 16.5 115.53 115.53 0 0 1-128.46 0 114.79 114.79 0 0 1 38-16.5c0 10.76 11.75 19.48 26.25 19.48s26.25-8.72 26.25-19.48z" style="fill:#fff;"/><path d="m92.502 194.27v0.70391c0 4.3033 2.4373 8.2583 6.3807 11.183 4.2199 3.1204 10.106 5.0508 16.661 5.0508 6.548 0 12.434-1.9303 16.654-5.0508 3.9434-2.9245 6.388-6.8795 6.388-11.183v-0.67489c1.0768 0.21771 2.1463 0.44994 3.2158 0.69666h-7e-3c1.0695 0.24672 2.1318 0.50798 3.1867 0.791-0.27648 6.103-3.6524 11.553-8.9708 15.493-5.2821 3.9114-12.521 6.328-20.466 6.328-7.9449 0-15.184-2.4165-20.474-6.328-5.333-3.9477-8.7089-9.4194-8.9708-15.544 1.055-0.27577 2.1099-0.53702 3.1722-0.78376 1.0695-0.23947 2.1463-0.46443 3.2304-0.68213z" style="fill:#000;"/><path d="m30.622 70.381c2.0971-3.9374 4.6649-7.9604 7.6822-12.037 3.0172-4.0765 6.0987-7.6929 9.2229-10.817l22.897 22.897c-4.4402 4.4403-8.2278 9.5439-11.213 15.14z" style="fill:#14fffd;"/><path d="m160.58 70.423 22.907-22.897c3.1242 3.1242 6.2056 6.7406 9.2229 10.817 3.0065 4.0765 5.5744 8.0994 7.6715 12.037l-28.578 15.182c-2.9851-5.5958-6.7727-10.689-11.224-15.14z" style="fill:#14fffd;"/><path d="m92.411 15.247c3.8197-0.87736 7.6715-1.5407 11.534-1.9794 4.0765-0.46007 7.9282-0.69546 11.555-0.69546 1.53 0 3.1563 0.0428 4.8682 0.1391l1.851 22.255 5.767-21.57c3.1028 0.37449 6.0666 0.86666 8.8912 1.4658l-10.55 49.763c-1.9259-0.41729-3.702-0.70617-5.3176-0.87736-1.423-0.14979-3.2633-0.22468-5.5102-0.22468-2.2362 0-4.237 0.10699-5.981 0.29958-1.9473 0.22469-3.8732 0.55636-5.767 0.99504z" style="fill:#14fffd;"/><path d="m92.411 15.247c1.9152-0.43869 4.023-0.84526 6.3233-1.2304 2.065-0.34238 4.1514-0.62057 6.2698-0.84525l5.1785 50.565c-1.0913 0.10699-2.1827 0.25679-3.2954 0.43868-0.86665 0.14979-1.9152 0.36378-3.1349 0.64196z" style="fill:#0d3a62;"/><path d="m83.739 83.92h63.533a19.101 19.1 0 0 1 19.051 19 19.111 19.11 0 0 1-19.051 19h-63.533a19.091 19.09 0 0 1-19.001-19 19.091 19.09 0 0 1 19.001-19z" style="fill:#FF2D00;"/><path d="m140.23 93.54a9.3804 9.38 0 1 0 9.3804 9.38 9.3804 9.38 0 0 0-9.3804-9.38zm-49.402 0a9.3804 9.38 0 1 0 9.3804 9.38 9.3904 9.39 0 0 0-9.3804-9.38z" style="fill:#fff;"/><rect x="79.795" y="98.627" width="71.471" height="8.5859" ry="4.2929" style="fill:none;"/><path d="m126.28 149.82c-6.16 2.43-15.52 2.42-21.56 0" style="fill:none;stroke-linecap:round;stroke-linejoin:round;stroke-width:5.9998px;stroke:#000;"/></svg>