<svg xmlns="http://www.w3.org/2000/svg" viewBox="0 0 231 231"><path d="M33.83,33.83a115.5,115.5,0,1,1,0,163.34,115.49,115.49,0,0,1,0-163.34Z" style="fill:#00a58c;"/><path d="m115.5 51.75a63.75 63.75 0 0 0-10.5 126.63v14.09a115.5 115.5 0 0 0-53.729 19.027 115.5 115.5 0 0 0 128.46 0 115.5 115.5 0 0 0-53.729-19.029v-14.084a63.75 63.75 0 0 0 53.25-62.881 63.75 63.75 0 0 0-63.65-63.75 63.75 63.75 0 0 0-0.09961 0z" style="fill:#b35f49;"/><path d="M61.11,205.59l3.49,3.69-6.26,6.6A115.45,115.45,0,0,0,72,222.51v-22a115.19,115.19,0,0,0-10.85,5.1Z" style="fill:#efedee;"/><path d="M93.24,228.85V199l-4-4A114.43,114.43,0,0,0,72,200.49v22a114.43,114.43,0,0,0,21.28,6.34Z" style="fill:#ec0033;"/><path d="m159 222.51v-22a114.63 114.63 0 0 0-17.25-5.51l-4 4v29.86a114.16 114.16 0 0 0 21.25-6.35z" style="fill:#ec0033;"/><path d="m169.89 205.59-3.49 3.69 6.26 6.6a115.45 115.45 0 0 1-13.66 6.63v-22a115.19 115.19 0 0 1 10.85 5.1z" style="fill:#efedee;"/><path d="M115.5,219.62A28.5,28.5,0,0,1,87.25,195c2.93-.74,5.92-1.36,8.94-1.87a19.41,19.41,0,0,0,38.62,0c3,.51,6,1.13,8.94,1.87a28.49,28.49,0,0,1-28.25,24.63Z" style="fill:#f2ff05;"/><path d="m156.1 15.879c-0.38556 5.3015-1.7049 9.4762-3.6602 12.76-0.41226 23.773-9.2343 35.229-15.154 42.797l15.062-4.6641c-0.66253 2.8135-2.4628 7.156-0.34766 12.137 1.6334-2.3144 7.9395-5.807 13-3.3477-0.43442 3.5532-0.95271 7.094-1.4512 10.639l8.9648 0.85937c0.83453 3.8792 0.51719 9.3449-0.59961 11.736l5.5508 2.0098c0.20764 2.7646 0.10001 5.4906-0.74609 8.875 8.4545-1.7225 14.213-4.3896 19.641-13.188 2.8639-4.7524 4.9018-10.483 4.7305-17.242-4.1612 4.916-9.6484 7.2485-15.26 10.109 6.507-11.065 8.8648-22.768 8.1367-30.58-7.3456 10.251-11.649 13.06-19.918 16.9 1.2386-11.4 5.5249-18.582 12.461-27.27-11.392-1.3025-16.301 1.4749-24.891 6.4395 4.5466-14.036 2.2208-26.679-5.5195-38.971zm-117.76 28.682c9.3378 3.6366 19.581 9.0234 21.129 18.549-7.6182 0.0414-14.897-3.5072-20.242-7.1894-0.15967 8.2309 2.8451 12.252 6.7734 19.08-7.2127 1.6129-12.084 4.8315-17.471 9.4805 7.2948-0.15715 12.299-1.0502 16.891 4.2793-6.0512 5.0164-11.99 10.79-11.99 19.24 9.257-6.1688 12.495-5.9486 21.137-2.2012 1.2906-8.0996 2.3978-14.872 2.7869-16.435 2.4719-0.73247 3.5247-0.94807 5.9221-1.2938-2.1556-7.4281 1.0996-9.5176 2.4141-11.6l7.543 1.5059c-3.9093-6.1699 2.6565-12.483 7.1445-15.51-4.4474-7.2082-5.6649-11.558-7.377-16.797-11.198-8.2947-23.895-6.2742-34.66-1.1094z" style="fill:#ff90f4;"/><path d="m101.9 7.6408c-10.047 6.2416-12.441 28.646-12.131 33.289-6.9249-5.8258-7.8992-13.75-7.7695-19.203-9.6235 6.0158-10.666 14.421-9 23.943 1.1061 5.1411 2.3972 10.461 7.377 16.797 2e-3 -1e-3 4e-3 -3e-3 6e-3 -4e-3 2.7742 2.8742 5.4644 5.5941 8.3477 8.3574 0.41187-6.971 0.45449-13.622 7.1856-15.824 3.9532 2.8169 7.4123 5.9388 11.084 9.1035l10.559-10.25c5.6447 3.961 5.4531 6.5652 6.5215 14.104 2.153-1.7546 8.719-9.0037 15.844-10.139 0.98706 4.1261-0.99388 10.308-2.6387 13.621 0 0 14.32-11.846 15.195-27.971 0.33968-6.2599 0.2237-11.146-0.041-14.826-3.2125 5.5652-8.7118 8.7799-13.789 10.15-4.2715-9.2486-2.4785-21.435-0.48047-29.309-12.21 3.0195-20.932 18.337-22.172 25.07-9.2678-7.397-13.605-16.146-14.098-26.91z" style="fill:#ff90f4;"/><line x1="85.29" x2="85.29" y1="98.73" y2="109.79" style="fill:none;stroke-linecap:round;stroke-linejoin:round;stroke-width:8.7999px;stroke:black;"/><path d="m108.28 72.16h62.18c9.19 0 13.32 1.21 14.71 8.52 3.61 18.95 2.2 33.49-0.44 43.75a65.07 65.07 0 0 1-5.89 14.78 73.52 73.52 0 0 1-7.06 10.26c-1.8 2.27-5.17 1.21-4.19-1.09 0.14-0.47 0.27-1 0.4-1.48a14.29 14.29 0 0 0 0.52-6.62 12.52 12.52 0 0 0-3.88-6.3c-4.17-3.9-12.81-8.71-32.53-13.66-6.4-1.6-10.69-2.24-11.76-2.79a7.08 7.08 0 0 1-3.85-6.31v-9c0-2.39 0.18-4.55-1.56-6.57s-4.16-2.13-6.65-2.14a6 6 0 0 1-6-6v-9.35a6 6 0 0 1 6-6z" style="fill:#008;opacity:0.67;"/><path d="m135.9 98.73v9.27m15.22-9.29v9.29" style="fill:none;stroke-linecap:round;stroke-linejoin:round;stroke-width:7.7998px;stroke:aqua;"/><path d="m118.57 165.14a8.66 8.66 0 0 0-2.76-4.23h-0.62a8 8 0 0 0-2.76 4.22c-0.52 1.89 2.07 10.61 2.76 12.53h0.62c0.64-1.76 3.19-10.82 2.76-12.52z" style="fill:#191919;"/><path d="m102.81 152.24a2.4921 2.4921 0 1 1 1.19-4.84l0.21 0.06a37.1 37.1 0 0 0 5.43 1.12 44.52 44.52 0 0 0 11.76 0 37.1 37.1 0 0 0 5.43-1.12 2.4903 2.4903 0 0 1 1.59 4.72l-0.21 0.06a43.08 43.08 0 0 1-6.15 1.29 48.55 48.55 0 0 1-13.08 0 42.79 42.79 0 0 1-6.17-1.29z" style="fill:#191919;"/></svg>