<svg xmlns="http://www.w3.org/2000/svg" viewBox="0 0 231 231"><path d="M33.83,33.83a115.5,115.5,0,1,1,0,163.34,115.49,115.49,0,0,1,0-163.34Z" style="fill:#ff7520;"/><path d="m115.5 51.75a63.75 63.75 0 0 0-10.5 126.63v14.09a115.5 115.5 0 0 0-53.729 19.027 115.5 115.5 0 0 0 128.46 0 115.5 115.5 0 0 0-53.729-19.029v-14.084a63.75 63.75 0 0 0 53.25-62.881 63.75 63.75 0 0 0-63.65-63.75 63.75 63.75 0 0 0-0.09961 0z" style="fill:#ffce73;"/><path d="m141.75 195a114.79 114.79 0 0 1 38 16.5 115.53 115.53 0 0 1-128.46 0 114.79 114.79 0 0 1 38-16.5c0 10.76 11.75 19.48 26.25 19.48s26.25-8.72 26.25-19.48z" style="fill:#fff;"/><path d="m92.502 194.27v0.70391c0 4.3033 2.4373 8.2583 6.3807 11.183 4.2199 3.1204 10.106 5.0508 16.661 5.0508 6.548 0 12.434-1.9303 16.654-5.0508 3.9434-2.9245 6.388-6.8795 6.388-11.183v-0.67489c1.0768 0.21771 2.1463 0.44994 3.2158 0.69666h-7e-3c1.0695 0.24672 2.1318 0.50798 3.1867 0.791-0.27648 6.103-3.6524 11.553-8.9708 15.493-5.2821 3.9114-12.521 6.328-20.466 6.328-7.9449 0-15.184-2.4165-20.474-6.328-5.333-3.9477-8.7089-9.4194-8.9708-15.544 1.055-0.27577 2.1099-0.53702 3.1722-0.78376 1.0695-0.23947 2.1463-0.46443 3.2304-0.68213z" style="fill:#000;"/><path d="m43.891 77.836c-5.1124 28.237 2.1347 61.004 24.792 81.332-6.2362-12.503-9.5362-33.948-9.4887-45.458-0.50203-37.473 41.439-46.335 56.149-17.614 18.8-31.2 52.825-16.872 54.062 13.714 0.56018 13.844-0.43568 25.598-7.0962 48.966 18.372-12.47 28.012-53.959 23.545-80.941-47.486-2.2552-94.831-2.5724-141.96 0z" style="fill:#D2001B;"/><path d="m111.26 12.782c-18.508 0.0791-32.594 3.6163-32.594 3.6163 24.513 5.6002 32.807 10.504 31.743 19.835-0.87227 9.702-11.092 10.875-20.811 11.554-5.2548 0.36414-10.949 0.71523-16.391 1.7525-11.862 2.2818-19.946 4.3736-24.447 11.956-1.7012 2.8662-3.7945 10.428-4.8689 16.34h141.96c-5.7242-38.563-32.557-65.073-74.595-65.054z" style="fill:none;"/><path d="m73.292 44.77c-11.788 2.2816-18.923 5.5444-23.394 13.126-2.8484 6.7586-4.8454 13.238-6.0072 19.939h141.96c-1.9772-14.576-6.8677-28.248-19.277-32.098-28.834-6.3308-63.774-6.3553-93.285-0.96761z" style="fill:none;"/><path d="m165.95 35.642c-11.178 21.829-91.89 19.36-103.98 2.3011-9.703 12.267-15.605 25.883-18.079 39.892h141.96c-3.0096-17.158-9.7424-32.688-19.902-42.193z" style="fill:#D2001B;"/><path d="m83.739 83.92h63.533a19.101 19.1 0 0 1 19.051 19 19.111 19.11 0 0 1-19.051 19h-63.533a19.091 19.09 0 0 1-19.001-19 19.091 19.09 0 0 1 19.001-19z" style="fill:#0c00de;"/><path d="m140.23 93.54a9.3804 9.38 0 1 0 9.3804 9.38 9.3804 9.38 0 0 0-9.3804-9.38zm-49.402 0a9.3804 9.38 0 1 0 9.3804 9.38 9.3904 9.39 0 0 0-9.3804-9.38z" style="fill:#fff;"/><rect x="79.795" y="98.627" width="71.471" height="8.5859" ry="4.2929" style="fill:none;"/><path d="m115.5 153.93a14 14 0 0 1-10.5-4.69 3.4209 3.4209 0 0 1 5-4.67l0.08 0.08 0.08 0.09a7.35 7.35 0 0 0 10.39 0.37l0.37-0.37a3.4206 3.4206 0 1 1 5.23 4.41l-0.08 0.09a14 14 0 0 1-10.53 4.69z" /><path d="m115.27 127.32c-7.6627-0.03-15.251 1.4419-20.646 5.1465-7.62 5.33-9.9053 11.512-14.127 18.109-3.4379 5.2447-9.326 10.024-13.467 6.334 25.425 29.755 71.409 29.786 96.875 0.0664-6.8104 3.9305-11.545-2.47-13.508-6.4004-10.697-17.605-14.115-22.656-35.127-23.256zm-0.26758 8.3984c7.457 0.0802 14.986 1.2966 17.146 5.9522 2.5765 11.319-7.5878 17.454-16.681 17.515-6.09-0.05-12.2-2.3802-15.26-7.7402-6.36-11.16 3.6349-15.607 14.795-15.727z" style="fill:#4a3737;"/></svg>