<svg xmlns="http://www.w3.org/2000/svg" viewBox="0 0 231 231"><path d="M33.83,33.83a115.5,115.5,0,1,1,0,163.34,115.49,115.49,0,0,1,0-163.34Z" style="fill:#ff9700;"/><path d="m115.5 51.75a63.75 63.75 0 0 0-10.5 126.63v14.09a115.5 115.5 0 0 0-53.729 19.027 115.5 115.5 0 0 0 128.46 0 115.5 115.5 0 0 0-53.729-19.029v-14.084a63.75 63.75 0 0 0 53.25-62.881 63.75 63.75 0 0 0-63.65-63.75 63.75 63.75 0 0 0-0.09961 0z" style="fill:#85492C;"/><path d="m141.75 194.98a114.79 114.78 0 0 1 38 16.498 115.53 115.52 0 0 1-128.46 0 114.79 114.78 0 0 1 38-16.498l15.71 15.748h21z" style="fill:#ff0000;"/><path d="m70 200.88v20.77c-2.22-0.95325-4.3999-1.9698-6.5399-3.0496h-0.10088v-14.621c2.17-1.1 4.39-2.1399 6.64-3.0996z" style="fill:#fff;"/><path d="m161 200.88v20.77c1.9-0.80986 3.7702-1.6798 5.6201-2.5898l0.0989-0.0494 0.82005-0.40997h0.10088v-14.621c-2.17-1.1-4.39-2.1399-6.6402-3.0996z" style="fill:#fff;"/><polygon transform="matrix(1 0 0 .99987 4e-5 -3e-5)" points="97.32 201.93 115.5 223.72 133.68 201.93" style="fill:#141720;"/><path d="m111.2 230.88 1.31-16.908c0.32992 1.2798 5.6399 1.2798 5.9999 0l1.3201 16.938c-1.4301 0.0494-2.8601 0.089-4.3 0.089s-2.87 0-4.3-0.089z" style="fill:#141720;"/><path d="m115.49 201.79v0.0692l-7.55 12.678-7.0001 11.809-19.19-26.487c0.60999-0.42995 1.22-0.89985 1.8001-1.3899a52 51.993 0 0 0 10.07-10.619l21.79 13.878z" style="fill:#e7ecf2;"/><path d="m149.24 199.86-19.08 26.517-7.0001-11.809-7.57-12.678-0.0593-0.10086 21.94-13.998a52.21 52.203 0 0 0 10.08 10.699c0.58013 0.47009 1.1502 0.92002 1.7301 1.3399z" style="fill:#e7ecf2;"/><path d="m137.38 11.148c-12.23 1.9593-18.511 14.606-43.436 9.4915-11.285-3.2054-16.406-3.573-20.389 0.58594-4.1548 4.3384-7.033 12.435-9.8184 21.706-2.1354 7.4136-3.7187 14.381-4.7461 21.646h112.7c-3.4878-24.293-10.822-43.281-25.182-51.061-3.5314-1.623-6.5274-2.2959-9.1289-2.3613z" style="fill:#27363C;"/><path d="m114.37 43.383c-19.445 0.088-38.524 2.0724-52.379 5.6992-1.2766 4.5795-2.4317 10.169-3.2285 16.807h113.11c-0.83731-6.0107-1.9164-11.674-3.3184-16.924-15.229-3.8842-34.873-5.6693-54.18-5.582z" style="fill:#5DCAD4;"/><path d="m115.5 55.773c-58.39 0-105.73 15.476-105.73 34.57h0.0312c0 11.295 16.496 21.319 42.126 27.627-0.10331-7.7704 2.788-21.904 5.2734-31.031 6.0935-1.7168 6.9294-1.8971 13.167-2.9919 14.874-2.8256 29.99-4.2037 45.133-4.1153 15.143-0.0884 30.259 1.2897 45.133 4.1153 6.2372 1.0947 7.2065 1.2751 13.3 2.9919 2.4854 9.1267 5.3768 23.26 5.2734 31.031 25.63-6.3082 41.993-16.332 41.993-27.627h0.0312c0-19.093-47.34-34.57-105.73-34.57z" style="fill:#314652;"/><path d="m72.088 83.533c-6.9765 1.1147-13.357 2.856-18.439 4.3477-1.1861 7.415-2.0038 18.858-1.8926 26.293 4.3278-0.62795 10.155-1.3644 13.295-1.6465-0.40554 0.30198 2.7344-17.827 7.0371-28.994zm86.824 0c4.3028 11.167 7.4426 29.296 7.0371 28.994 3.1396 0.28213 8.9671 1.0185 13.295 1.6465 0.11119-7.4351-0.70652-18.878-1.8926-26.293-5.0822-1.4916-11.463-3.2329-18.439-4.3477z" style="fill:#333;"/><path d="m172.7 90.75h-6.54c-0.14-0.1-0.26-0.22-0.4-0.3-4.48-2.76-22.75-2.11-33.71 1.2-1 0.3-1.91 0.61-2.75 0.94-1.8937 0.79244-3.8739 1.3597-5.9 1.69-5.5051 0.79002-10.403 0.79002-15.908 0-2.0261-0.33034-4.0063-0.89756-5.9-1.69-0.84-0.33-1.76-0.64-2.75-0.94-11-3.31-29.23-4-33.71-1.2-0.13832 0.08869-0.2688 0.18906-0.39 0.3h-6.55c-1.1046 0-2 0.89543-2 2v4.66c-0.0013 0.98185 0.49088 1.8986 1.31 2.44l1.9 1.27c0.59238 0.38889 0.93475 1.0622 0.9 1.77-0.14175 5.4854 0.88072 10.939 3 16 3.58 8.38 16 10.9 24.93 10.9 2.6976 0.0771 5.3921-0.2361 8-0.93 4.35-1.43 8.24-7.36 10.45-12.42 1.7607-3.8506 2.7493-8.009 2.91-12.24 7.3e-4 -0.7138 0.38183-1.3731 1-1.73 3.2281-1.951 6.5798-1.951 9.8079 0 0.61817 0.3569 0.99927 1.0162 1 1.73 0.16067 4.231 1.1493 8.3894 2.91 12.24 2.21 5.06 6.1 11 10.45 12.42 2.6079 0.6939 5.3024 1.0071 8 0.93 8.92 0 21.35-2.52 24.93-10.9 2.1193-5.0614 3.1418-10.515 3-16-0.0348-0.70778 0.30762-1.3811 0.9-1.77l1.9-1.27c0.81913-0.54136 1.3113-1.4582 1.31-2.44v-4.6c0.0336-1.1048-0.83521-2.0274-1.94-2.06z" style="fill:#000;stroke-linecap:round;stroke-linejoin:round;stroke-width:2.5;stroke:magenta;"/><path d="m123.07 154.05a10.61 10.61 0 0 1-15 0.14l-0.14-0.14" style="fill:none;stroke-linecap:round;stroke-linejoin:round;stroke-width:6.3px;stroke:#000;"/><path d="m120.1 142.22 0.19-0.11c3-1.87 5.45-2.4 7.3-1.46 2.15 1.1 3.12 3.84 4.84 5.5a5.18 5.18 0 0 0 6.68 0.73m-28.21-4.66-0.19-0.11c-3-1.87-5.45-2.4-7.3-1.46-2.15 1.1-3.12 3.84-4.84 5.5a5.18 5.18 0 0 1-6.68 0.73" style="fill:none;stroke-linecap:round;stroke-linejoin:round;stroke-width:5.9998px;stroke:#ececec;"/></svg>