<svg xmlns="http://www.w3.org/2000/svg" viewBox="0 0 231 231"><path d="M33.83,33.83a115.5,115.5,0,1,1,0,163.34,115.49,115.49,0,0,1,0-163.34Z" style="fill:#104c8c;"/><path d="m115.5 51.75a63.75 63.75 0 0 0-10.5 126.63v14.09a115.5 115.5 0 0 0-53.729 19.027 115.5 115.5 0 0 0 128.46 0 115.5 115.5 0 0 0-53.729-19.029v-14.084a63.75 63.75 0 0 0 53.25-62.881 63.75 63.75 0 0 0-63.65-63.75 63.75 63.75 0 0 0-0.09961 0z" style="fill:#ad8a60;"/><path d="m141.74 195a114.93 114.93 0 0 1 37.912 16.45l0.07 0.05c-1.17 0.79-2.3601 1.55-3.5601 2.29a115.55 115.55 0 0 1-120.95 0.21q-2.0001-1.23-4.0002-2.54a114.79 114.79 0 0 1 38.002-16.5 116.21 116.21 0 0 1 15.791-2.49v-14.57c1.32 0.22 2.6501 0.39 4.0002 0.51 2.0001 0.19 4.0002 0.28 6.1202 0.29a64.333 64.33 0 0 0 8.8804-0.62c0.67003-0.09 1.3401-0.2 2.0001-0.31v14.69a118 118 0 0 1 15.741 2.54z" style="fill:#000;"/><path d="m79.292 212a3.4601 3.46 0 0 0 3.8902 5.07 3.3801 3.38 0 0 0 2.1001-1.61 3.4701 3.47 0 0 0-1.2801-4.72 3.4201 3.42 0 0 0-2.6201-0.34 3.5101 3.51 0 0 0-2.0901 1.6zm60.122 0.46a3.4901 3.49 0 0 0 1.21 4.7h0.06a3.4601 3.46 0 0 0 4.7202-1.27l0.07-0.13a3.4601 3.46 0 0 0-1.34-4.6 3.4601 3.46 0 0 0-2.5801-0.32 3.5301 3.53 0 0 0-2.1001 1.61zm9.8004 5.7 5.8602 5.87c-1.39 0.5-2.7901 1-4.2102 1.44l-4.4802-4.47a7.5203 7.52 0 0 1-1.9401 0.81 7.8303 7.83 0 0 1-6.0002-0.79 7.8703 7.87 0 0 1-2.9201-10.69v-0.07a7.8903 7.89 0 0 1 10.77-2.88l0.12 0.07a7.8603 7.86 0 0 1 2.7901 10.62v0.07zm-37.701-2.36-9.5004 9.51v4.9c-1.35-0.16-2.6801-0.33-4.0002-0.54v-6l0.58002-0.58 10.1-10.09a7.8703 7.87 0 1 1 2.8401 2.86zm7.3203-5.91a3.4601 3.46 0 1 0-1.6101 2.1 3.3801 3.38 0 0 0 1.6101-2.1zm-29.741 7.82 3.0901 3.1 0.59002 0.59v7.36c-1.3401-0.26-2.6801-0.55-4.0002-0.87v-4.84l-2.5101-2.51a7.5203 7.52 0 0 1-1.9401 0.81 7.8803 7.88 0 1 1 1.9101-14.43 7.8703 7.87 0 0 1 2.8901 10.75z" style="fill:#fff;"/><path d="m115.5 51.75c-38.702 5.3101-54.215 18.038-59.863 35.101" style="fill:none;stroke-linecap:round;stroke-linejoin:round;stroke-width:12;stroke:#FFFAAD;"/><path d="m115.5 51.75c-7.8393 3.6337-5.5974 16.583-14.341 23.452" style="fill:none;stroke-linecap:round;stroke-linejoin:round;stroke-width:12;stroke:#FFFAAD;"/><path d="m111.35 48.614c-22.634-6.9181-42.457-3.1988-55.733 2.5105" style="fill:none;stroke-linecap:round;stroke-linejoin:round;stroke-width:12;stroke:#FFFAAD;"/><path d="m115.47 54.008c0.1965-6.7774-0.1436-26.309 0.05-38.184" style="fill:none;stroke-linecap:round;stroke-linejoin:round;stroke-width:12;stroke:#FFFAAD;"/><path d="m68.874 28.177c34.115-3.382 41.987 13.321 45.17 19.602" style="fill:none;stroke-linecap:round;stroke-linejoin:round;stroke-width:12;stroke:#FFFAAD;"/><path d="m116.49 48.69c2.8876-6.3019 10.358-21.518 43.469-22.326" style="fill:none;stroke-linecap:round;stroke-linejoin:round;stroke-width:12;stroke:#FFFAAD;"/><path d="m116.92 51.766c1.5094 6.3991 3.4988 15.595 10.088 23.058" style="fill:none;stroke-linecap:round;stroke-linejoin:round;stroke-width:12;stroke:#FFFAAD;"/><path d="m113.81 51.532c22.03-7.8674 46.709-7.3614 59.444-2.0465" style="fill:none;stroke-linecap:round;stroke-linejoin:round;stroke-width:12;stroke:#FFFAAD;"/><path d="m114.53 52.278c36.226 4.8583 52.414 17.092 59.373 33.347" style="fill:none;stroke-linecap:round;stroke-linejoin:round;stroke-width:12;stroke:#FFFAAD;"/><path d="m55.637 86.851c-4.1213 12.452-2.9877 27.213-1.777 43.084" style="fill:none;stroke-linecap:round;stroke-linejoin:round;stroke-width:12;stroke:#FFFAAD;"/><path d="m55.614 51.124c-13.422 5.5019-21.908 16.409-24.712 28.774-1.8322 8.4632-1.9809 18.156-1.6096 28.486" style="fill:none;stroke-linecap:round;stroke-linejoin:round;stroke-width:12;stroke:#FFFAAD;"/><path d="m173.26 49.486c24.917 10.399 26.707 36.537 27.209 59.62" style="fill:none;stroke-linecap:round;stroke-linejoin:round;stroke-width:12;stroke:#FFFAAD;"/><path d="m173.9 85.625c5.4042 12.625 5.2413 27.675 4.5745 43.58" style="fill:none;stroke-linecap:round;stroke-linejoin:round;stroke-width:12;stroke:#FFFAAD;"/><path d="m53.86 129.93c1.293 16.951 2.6738 35.169-2.1664 53.193" style="fill:none;stroke-linecap:round;stroke-linejoin:round;stroke-width:12;stroke:none;"/><path d="m29.292 108.38c0.6173 17.177 2.6722 36.119 0.8158 54.108" style="fill:none;stroke-linecap:round;stroke-linejoin:round;stroke-width:12;stroke:none;"/><path d="m200.47 109.11c0.3586 18.529-1.2751 36.94 1.9231 48.985" style="fill:none;stroke-linecap:round;stroke-linejoin:round;stroke-width:12;stroke:none;"/><path d="m178.48 129.2c-0.7279 17.362-2.0563 35.743 2.6011 53.099" style="fill:none;stroke-linecap:round;stroke-linejoin:round;stroke-width:12;stroke:none;"/><line x1="85.29" x2="85.29" y1="98.73" y2="109.79" style="fill:none;stroke-linecap:round;stroke-linejoin:round;stroke-width:8.7999px;stroke:black;"/><path d="m108.28 72.16h62.18c9.19 0 13.32 1.21 14.71 8.52 3.61 18.95 2.2 33.49-0.44 43.75a65.07 65.07 0 0 1-5.89 14.78 73.52 73.52 0 0 1-7.06 10.26c-1.8 2.27-5.17 1.21-4.19-1.09 0.14-0.47 0.27-1 0.4-1.48a14.29 14.29 0 0 0 0.52-6.62 12.52 12.52 0 0 0-3.88-6.3c-4.17-3.9-12.81-8.71-32.53-13.66-6.4-1.6-10.69-2.24-11.76-2.79a7.08 7.08 0 0 1-3.85-6.31v-9c0-2.39 0.18-4.55-1.56-6.57s-4.16-2.13-6.65-2.14a6 6 0 0 1-6-6v-9.35a6 6 0 0 1 6-6z" style="fill:#1df7ff;opacity:0.64;"/><path d="m135.9 98.73v9.27m15.22-9.29v9.29" style="fill:none;stroke-linecap:round;stroke-linejoin:round;stroke-width:7.7998px;stroke:#fcff2c;"/><path d="m100.35 143.85a7.67 7.67 0 0 0 7.58 7.7v0a7.66 7.66 0 0 0 7.57-7.7 7.66 7.66 0 0 0 7.57 7.7v0a7.67 7.67 0 0 0 7.58-7.7" style="fill:none;stroke-linecap:round;stroke-linejoin:round;stroke-width:6.3998px;stroke:#000;"/></svg>