<svg xmlns="http://www.w3.org/2000/svg" viewBox="0 0 231 231"><path d="M33.83,33.83a115.5,115.5,0,1,1,0,163.34,115.49,115.49,0,0,1,0-163.34Z" style="fill:#ff7520;"/><path d="m115.5 51.75a63.75 63.75 0 0 0-10.5 126.63v14.09a115.5 115.5 0 0 0-53.729 19.027 115.5 115.5 0 0 0 128.46 0 115.5 115.5 0 0 0-53.729-19.029v-14.084a63.75 63.75 0 0 0 53.25-62.881 63.75 63.75 0 0 0-63.65-63.75 63.75 63.75 0 0 0-0.09961 0z" style="fill:#cc9a5c;"/><path d="m141.75 195a114.79 114.79 0 0 1 38 16.5 115.53 115.53 0 0 1-128.46 0 114.79 114.79 0 0 1 38-16.5l15.71 15.75h21z" style="fill:#304267;"/><path d="m115.45 211.34-10.55 10.54a2.51 2.51 0 0 1-3.5599 0 2 2 0 0 1-0.26999-0.30994l-18.48-25.4 5.8901-5.8899a2.52 2.52 0 0 1 3.5199-0.0791l23.49 21.14z" style="fill:#aab0b1;"/><path d="m115.45 211.34 10.55 10.54a2.51 2.51 0 0 0 3.5599 0 2 2 0 0 0 0.26999-0.30994l18.48-25.4-5.8901-5.8899a2.52 2.52 0 0 0-3.4699-0.089l-23.49 21.14z" style="fill:#aab0b1;"/><path d="m158.41 199.58-10.11-3.2401v29.93q5.1601-1.5299 10.11-3.51zm-75.82 26.66v-29.9l-10.1 3.2401v23.14c3.2901 1.3199 6.67 2.4999 10.1 3.5199z" style="fill:#aab0b1;"/><path d="m57.534 142.03c-6.9383-31.75-0.57294-52.577 14.174-62.344 22.562-12.283 62.082-12.222 83.484-1.8846 21.348 11.177 22.124 37.396 18.498 63.733 8.1279-14.155 13.164-31.598 14.085-48.902 1.0828-11.795-1.1756-18.866-7.4833-27.972-26.465-37.685-103.45-31.56-129.66-2.8372-7.8504 9.4615-9.6006 17.478-9.275 26.667 1.0024 18.667 6.9688 38.508 16.18 53.54z" style="fill:#67FFCC;"/><path d="m111.26 3.0423c-6.013 0.1128-12.629 2.6924-15.291 7.9082-1.1676 3.2383-1.6758 6.2069-1.6758 8.8926 0.89228-0.2661 1.8005-0.5164 2.7266-0.7441 3.7502-1.0672 7.4851-1.7135 11.129-1.9981 1.1007-0.086 2.1953-0.1391 3.2773-0.1601h2e-3c5.6969-0.1133 11.09 0.6603 15.904 2.0527 0.0552-3.042-0.70696-5.9824-2.1738-8.5-1.8411-3.1599-4.7033-5.5568-8.4297-6.8262-1.6883-0.4952-3.5163-0.662-5.4688-0.625zm3.0664 17.449c-0.69317-0.01-1.3919-0.01-2.0938 0h-2e-3c-1.1591 0.019-2.3326 0.064-3.5117 0.1386-3.9035 0.246-7.9025 0.8061-11.92 1.7285-15.159 3.0075-26.469 9.9279-22.068 19.682 22.891-8.7773 52.315-10.403 76.023-2.2129 2.1414-9.5529-14.939-19.081-36.428-19.34z" style="fill:none;"/><path d="m165.62 16.981c-0.8575 0-1.9406 0.54389-3.3476 1.3574-7.3382 4.7652-13.452 10.867-19.516 18.363 9.2734 2.1825 17.903 5.6706 25.213 10.604 1.1512-9.1263 1.9137-18.503 0.055-26.996-0.57-2.4184-1.3017-3.3267-2.4043-3.3281zm-104.09 1.6934c-1.1026 0-1.8342 0.91165-2.4043 3.3301-1.8794 8.5869-1.0806 18.078 0.092 27.299 7.0559-4.6638 15.687-8.3667 25.111-10.984-6.043-7.4601-12.139-13.537-19.451-18.285-1.407-0.81353-2.4901-1.3605-3.3477-1.3594z" style="fill:none;"/><path d="m162.45 16.686c-2.3175 2e-3 -4.6276 0.57608-6.8926 1.668-8.4768 6.0155-11.113 13.349-10.133 19.787 10.323 2.7077 19.762 7.0658 27.346 13.279 9.848-4.9363 11.32-17.137 4.6152-25.852-4.7104-6.1222-9.8371-8.8878-14.936-8.8828zm-97.318 4.1387c-2.4569 0.0556-5.1642 0.54474-8.1172 1.5176-13.487 4.4433-19.06 21.215-3.6484 31.84 7.2476-6.0694 16.961-10.896 27.892-14.229 0.2193-3.3241-0.3201-7.0817-1.8691-11.236-2.8049-4.8445-7.2233-7.721-13.221-7.8906-0.3408-0.01-0.6861-0.01-1.0371-2e-3z" style="fill:#ecff3b;"/><path d="m70.959 94.985h35.031c2.4086 1e-5 4.3612 1.9523 4.3612 4.3606l-2.5864 17.511c-0.3515 2.3799-1.7218 4.3606-3.8457 4.3606h-30.9c-2.1239-1e-5 -3.8457-1.9523-3.8457-4.3606l-2.5864-17.511c1e-5 -2.4082 1.9526-4.3606 4.3612-4.3606z" style="fill:none;stroke-linecap:round;stroke-linejoin:round;stroke-width:3.0045px;stroke:#000;"/><path d="m160.05 94.985h-35.031c-2.4086 1e-5 -4.3612 1.9523-4.3612 4.3606l2.5864 17.511c0.35149 2.3799 1.7218 4.3606 3.8457 4.3606h30.9c2.1239-1e-5 3.8457-1.9523 3.8457-4.3606l2.5864-17.511c-1e-5 -2.4082-1.9526-4.3606-4.3612-4.3606z" style="fill:none;stroke-linecap:round;stroke-linejoin:round;stroke-width:3.0045px;stroke:#000;"/><path d="m90.607 102.35a4.6337 4.6332 0 1 0 4.6892 4.6337 4.6337 4.6332 0 0 0-4.6892-4.6337zm49.72 0a4.6337 4.6332 0 1 0 4.6444 4.6337 4.6337 4.6332 0 0 0-4.6444-4.6337z" style="fill:#5a0000;"/><path d="m70.66 94.985h-11.775" style="fill:none;stroke-linecap:round;stroke-linejoin:round;stroke-width:3.0045px;stroke:#000;"/><path d="m172.13 94.985h-19.484" style="fill:none;stroke-linecap:round;stroke-linejoin:round;stroke-width:3.0045px;stroke:#000;"/><path d="m109.32 106.2c4.2045-2.427 9.3036-1.913 12.353-0.0258" style="fill:none;stroke-linecap:round;stroke-linejoin:round;stroke-width:3.0045px;stroke:#000;"/><path d="m148.33 109.79-5.7626-8.2324" style="fill:none;stroke-linecap:round;stroke-linejoin:round;stroke-width:4;stroke:none;"/><path d="m156.27 105-2.403-3.4328" style="fill:none;stroke-linecap:round;stroke-linejoin:round;stroke-width:4;stroke:none;"/><path d="m82.748 114.34-8.9489-12.784" style="fill:none;stroke-linecap:round;stroke-linejoin:round;stroke-width:4;stroke:none;"/><path d="m91.408 109.79-5.7626-8.2324" style="fill:none;stroke-linecap:round;stroke-linejoin:round;stroke-width:4;stroke:none;"/><path d="m115.68 160.64c7.08 0 13.11-4.93 15.46-11.84a2.14 2.14 0 0 0-1.51-2.6101 2.3 2.3 0 0 0-0.73995-0.0593h-26.42a2.12 2.12 0 0 0-2.31 1.9099 1.85 1.85 0 0 0 0.0593 0.73995c2.3401 6.9301 8.3802 11.86 15.46 11.86z" style="fill:#7d0000;"/></svg>