<svg xmlns="http://www.w3.org/2000/svg" viewBox="0 0 231 231"><path d="M33.83,33.83a115.5,115.5,0,1,1,0,163.34,115.49,115.49,0,0,1,0-163.34Z" style="fill:#40E83B;"/><path d="m115.5 51.75a63.75 63.75 0 0 0-10.5 126.63v14.09a115.5 115.5 0 0 0-53.729 19.027 115.5 115.5 0 0 0 128.46 0 115.5 115.5 0 0 0-53.729-19.029v-14.084a63.75 63.75 0 0 0 53.25-62.881 63.75 63.75 0 0 0-63.65-63.75 63.75 63.75 0 0 0-0.09961 0z" style="fill:#FFD79D;"/><path d="m141.75 195a114.79 114.79 0 0 1 38 16.5 115.53 115.53 0 0 1-128.46 0 114.79 114.79 0 0 1 38-16.5l26.23 13 26.27-13z" style="fill:#2385c6;"/><polygon points="115.5 208.03 115.5 207.74 82.72 188.91 80.45 198.86 101.46 222.72" style="fill:#b8d0e0;"/><polygon points="115.5 208.03 115.5 207.74 148.28 188.91 150.55 198.86 129.54 222.72" style="fill:#b8d0e0;"/><path d="m30.622 70.381c2.0971-3.9374 4.6649-7.9604 7.6822-12.037 3.0172-4.0765 6.0987-7.6929 9.2229-10.817l22.897 22.897c-4.4402 4.4403-8.2278 9.5439-11.213 15.14z" style="fill:none;"/><path d="m160.58 70.423 22.907-22.897c3.1242 3.1242 6.2056 6.7406 9.2229 10.817 3.0065 4.0765 5.5744 8.0994 7.6715 12.037l-28.578 15.182c-2.9851-5.5958-6.7727-10.689-11.224-15.14z" style="fill:none;"/><path d="m92.411 15.247c3.8197-0.87736 7.6715-1.5407 11.534-1.9794 4.0765-0.46007 7.9282-0.69546 11.555-0.69546 1.53 0 3.1563 0.0428 4.8682 0.1391l1.851 22.255 5.767-21.57c3.1028 0.37449 6.0666 0.86666 8.8912 1.4658l-10.55 49.763c-1.9259-0.41729-3.702-0.70617-5.3176-0.87736-1.423-0.14979-3.2633-0.22468-5.5102-0.22468-2.2362 0-4.237 0.10699-5.981 0.29958-1.9473 0.22469-3.8732 0.55636-5.767 0.99504z" style="fill:#d6f740;"/><path d="m92.411 15.247c1.9152-0.43869 4.023-0.84526 6.3233-1.2304 2.065-0.34238 4.1514-0.62057 6.2698-0.84525l5.1785 50.565c-1.0913 0.10699-2.1827 0.25679-3.2954 0.43868-0.86665 0.14979-1.9152 0.36378-3.1349 0.64196z" style="fill:#516303;"/><path d="m172.7 90.75h-6.54c-0.14-0.1-0.26-0.22-0.4-0.3-4.48-2.76-22.75-2.11-33.71 1.2-1 0.3-1.91 0.61-2.75 0.94-1.8937 0.79244-3.8739 1.3597-5.9 1.69-5.5051 0.79002-10.403 0.79002-15.908 0-2.0261-0.33034-4.0063-0.89756-5.9-1.69-0.84-0.33-1.76-0.64-2.75-0.94-11-3.31-29.23-4-33.71-1.2-0.13832 0.08869-0.2688 0.18906-0.39 0.3h-6.55c-1.1046 0-2 0.89543-2 2v4.66c-0.0013 0.98185 0.49088 1.8986 1.31 2.44l1.9 1.27c0.59238 0.38889 0.93475 1.0622 0.9 1.77-0.14175 5.4854 0.88072 10.939 3 16 3.58 8.38 16 10.9 24.93 10.9 2.6976 0.0771 5.3921-0.2361 8-0.93 4.35-1.43 8.24-7.36 10.45-12.42 1.7607-3.8506 2.7493-8.009 2.91-12.24 7.3e-4 -0.7138 0.38183-1.3731 1-1.73 3.2281-1.951 6.5798-1.951 9.8079 0 0.61817 0.3569 0.99927 1.0162 1 1.73 0.16067 4.231 1.1493 8.3894 2.91 12.24 2.21 5.06 6.1 11 10.45 12.42 2.6079 0.6939 5.3024 1.0071 8 0.93 8.92 0 21.35-2.52 24.93-10.9 2.1193-5.0614 3.1418-10.515 3-16-0.0348-0.70778 0.30762-1.3811 0.9-1.77l1.9-1.27c0.81913-0.54136 1.3113-1.4582 1.31-2.44v-4.6c0.0336-1.1048-0.83521-2.0274-1.94-2.06z" style="fill:#000;stroke-linecap:round;stroke-linejoin:round;stroke-width:2.5;stroke:#00ffdc;"/><path d="m118.57 165.14a8.66 8.66 0 0 0-2.76-4.23h-0.62a8 8 0 0 0-2.76 4.22c-0.52 1.89 2.07 10.61 2.76 12.53h0.62c0.64-1.76 3.19-10.82 2.76-12.52z" style="fill:#191919;"/><path d="m102.81 152.24a2.4921 2.4921 0 1 1 1.19-4.84l0.21 0.06a37.1 37.1 0 0 0 5.43 1.12 44.52 44.52 0 0 0 11.76 0 37.1 37.1 0 0 0 5.43-1.12 2.4903 2.4903 0 0 1 1.59 4.72l-0.21 0.06a43.08 43.08 0 0 1-6.15 1.29 48.55 48.55 0 0 1-13.08 0 42.79 42.79 0 0 1-6.17-1.29z" style="fill:#191919;"/></svg>