<svg xmlns="http://www.w3.org/2000/svg" viewBox="0 0 231 231"><path d="M33.83,33.83a115.5,115.5,0,1,1,0,163.34,115.49,115.49,0,0,1,0-163.34Z" style="fill:#ff184e;"/><path d="m115.5 51.75a63.75 63.75 0 0 0-10.5 126.63v14.09a115.5 115.5 0 0 0-53.729 19.027 115.5 115.5 0 0 0 128.46 0 115.5 115.5 0 0 0-53.729-19.029v-14.084a63.75 63.75 0 0 0 53.25-62.881 63.75 63.75 0 0 0-63.65-63.75 63.75 63.75 0 0 0-0.09961 0z" style="fill:#f8d9ad;"/><path d="m141.75 194.98a114.79 114.78 0 0 1 38 16.498 115.53 115.52 0 0 1-128.46 0 114.79 114.78 0 0 1 38-16.498l15.71 15.748h21z" style="fill:#ff0000;"/><path d="m70 200.88v20.77c-2.22-0.95325-4.3999-1.9698-6.5399-3.0496h-0.10088v-14.621c2.17-1.1 4.39-2.1399 6.64-3.0996z" style="fill:#fff;"/><path d="m161 200.88v20.77c1.9-0.80986 3.7702-1.6798 5.6201-2.5898l0.0989-0.0494 0.82005-0.40997h0.10088v-14.621c-2.17-1.1-4.39-2.1399-6.6402-3.0996z" style="fill:#fff;"/><polygon transform="matrix(1 0 0 .99987 4e-5 -3e-5)" points="97.32 201.93 115.5 223.72 133.68 201.93" style="fill:#141720;"/><path d="m111.2 230.88 1.31-16.908c0.32992 1.2798 5.6399 1.2798 5.9999 0l1.3201 16.938c-1.4301 0.0494-2.8601 0.089-4.3 0.089s-2.87 0-4.3-0.089z" style="fill:#141720;"/><path d="m115.49 201.79v0.0692l-7.55 12.678-7.0001 11.809-19.19-26.487c0.60999-0.42995 1.22-0.89985 1.8001-1.3899a52 51.993 0 0 0 10.07-10.619l21.79 13.878z" style="fill:#e7ecf2;"/><path d="m149.24 199.86-19.08 26.517-7.0001-11.809-7.57-12.678-0.0593-0.10086 21.94-13.998a52.21 52.203 0 0 0 10.08 10.699c0.58013 0.47009 1.1502 0.92002 1.7301 1.3399z" style="fill:#e7ecf2;"/><path d="m157.79 67.5a61.31 61.31 0 0 1-42.79 17.43h-55.7c18.16-37.74 68.27-46.85 98.49-17.43z" style="fill:#FFEB3B;"/><path d="m122.93 7.0078c-10.503-0.15729-21.09 1.6448-29.545 5.4316-17.141 7.8999-32.169 23.297-43.973 38.779-5.1703 6.8631-8.7779 13.46-8.1855 18.395 0.93114 12.312 10.372 26.483 11.068 36.9 15.663-72.081 105.99-70.452 124.91-7.0525l4e-3 0.0156c5.616-10.926 8.0682-20.188 8.352-27.653 0.43654-15.607-7.8088-21.149-21.735-28.249 1.7934-3.7704 1.7273-7.5023 2.0625-10.154-0.79964-7.8568-3.6796-13.51-10.43-17.758-5.9434-3.7404-13.06-6.0867-18.463-7.2266-4.5319-0.87895-9.2901-1.3562-14.064-1.4277z" style="fill:#FFEB3B;"/><path d="m42.426 75.338c0.52158 18.689 10.557 74.338-18.115 101.25 12.38 10.603 28.352 19.061 46.025 24.594 11.032-4.6874 22.88-7.4147 34.817-8.5046l0.0633-14.477c-22.49-4.3813-40.766-18.898-48.862-39.967-8.096-21.07-4.7931-44.72 9.2478-62.393zm124.67 2.7207c7.8997 10.886 11.743 24.64 11.787 37.441-0.36632 30.178-22.389 57.576-53.12 62.708l0.0238 14.471c12.282 1.1216 24.518 3.9888 35.825 8.9128 15.488-5.1448 30.007-13.325 42.396-25.043-13.136-22.051-23.282-63.045-18.694-101.55z" style="fill:none;"/><path d="m143.61 46.383c-11.639 0.12482-20.998 1.8906-20.998 1.8906l-9 3.5059c0.63003-0.0191 1.2603-0.0289 1.8906-0.0293h0.0996c35.169 0.055 60.959 27.235 63.283 63.383 7.4e-4 31.157-22.742 57.213-53.106 63.079l-0.0216 14.498c11.567 1.0563 23.154 3.6067 33.887 8.0463 35.952-15.315 55.082-52.303 36.709-68.279-5.018-7.9035-10.44-15.409-9.5544-23.03 5.0545-50.452 0.39626-63.561-43.189-63.064zm-69.966 21.09c-15.286 3.244-17.096 3.73-31.734 6.6953 3.0304 13.081 3.0583 22.274 1.2085 30.012-3.8004 11.361-8.9712 19.787-12.286 28.764-6.8823 22.459-2.9157 31.982 12.093 46.165 8.6595 8.0693 19.861 16.209 30.939 20.647 2.669-1.0316 5.3729-1.9628 8.106-2.792 7.4979-2.275 15.388-3.6535 23.206-4.3673l0.0433-14.393c-23.933-4.5937-44.283-21.98-50.77-45.817-6.3319-23.265 0.51104-48.752 19.195-64.914z" style="fill:#FFEB3B;"/><path d="m83.739 83.92h63.533a19.101 19.1 0 0 1 19.051 19 19.111 19.11 0 0 1-19.051 19h-63.533a19.091 19.09 0 0 1-19.001-19 19.091 19.09 0 0 1 19.001-19z" style="fill:#000;"/><path d="m140.23 93.54a9.3804 9.38 0 1 0 9.3804 9.38 9.3804 9.38 0 0 0-9.3804-9.38zm-49.402 0a9.3804 9.38 0 1 0 9.3804 9.38 9.3904 9.39 0 0 0-9.3804-9.38z" style="fill:none;"/><rect x="79.795" y="98.627" width="71.471" height="8.5859" ry="4.2929" style="fill:#00FFFF;"/><path d="m118.57 165.14a8.66 8.66 0 0 0-2.76-4.23h-0.62a8 8 0 0 0-2.76 4.22c-0.52 1.89 2.07 10.61 2.76 12.53h0.62c0.64-1.76 3.19-10.82 2.76-12.52z" style="fill:#191919;"/><path d="m102.81 152.24a2.4921 2.4921 0 1 1 1.19-4.84l0.21 0.06a37.1 37.1 0 0 0 5.43 1.12 44.52 44.52 0 0 0 11.76 0 37.1 37.1 0 0 0 5.43-1.12 2.4903 2.4903 0 0 1 1.59 4.72l-0.21 0.06a43.08 43.08 0 0 1-6.15 1.29 48.55 48.55 0 0 1-13.08 0 42.79 42.79 0 0 1-6.17-1.29z" style="fill:#191919;"/></svg>